M48
; DRILL file {KiCad (6.0.10)} date Sun 05 Feb 2023 00:39:52 CST
; FORMAT={-:-/ absolute / inch / decimal}
; #@! TF.CreationDate,2023-02-05T00:39:52-06:00
; #@! TF.GenerationSoftware,Kicad,Pcbnew,(6.0.10)
; #@! TF.FileFunction,MixedPlating,1,2
FMAT,2
INCH
; #@! TA.AperFunction,Plated,PTH,ViaDrill
T1C0.0157
; #@! TA.AperFunction,Plated,PTH,ComponentDrill
T2C0.0157
; #@! TA.AperFunction,Plated,PTH,ComponentDrill
T3C0.0320
; #@! TA.AperFunction,Plated,PTH,ComponentDrill
T4C0.0433
; #@! TA.AperFunction,Plated,PTH,ComponentDrill
T5C0.0591
; #@! TA.AperFunction,NonPlated,NPTH,ComponentDrill
T6C0.0354
; #@! TA.AperFunction,NonPlated,NPTH,ComponentDrill
T7C0.0670
; #@! TA.AperFunction,NonPlated,NPTH,ComponentDrill
T8C0.1350
%
G90
G05
T1
X6.1349Y-0.9665
X6.1349Y-1.0059
T2
X3.3716Y-1.1665
X3.3716Y-1.2665
X3.3716Y-1.3665
X3.3716Y-1.4665
X3.3716Y-1.5665
X3.3716Y-1.6665
X3.3716Y-1.7665
X3.3716Y-1.8665
X3.3716Y-1.9665
X3.3716Y-2.0665
X3.3716Y-2.1665
X3.3716Y-2.2665
X3.4316Y-1.1665
X3.4316Y-1.2665
X3.4316Y-1.3665
X3.4316Y-1.4665
X3.4316Y-1.5665
X3.4316Y-1.6665
X3.4316Y-1.7665
X3.4316Y-1.8665
X3.4316Y-1.9665
X3.4316Y-2.0665
X3.4316Y-2.1665
X3.4316Y-2.2665
T3
X3.1016Y-1.0681
X3.7016Y-1.0681
T4
X3.1016Y-1.1665
X3.1016Y-1.1665
X3.1016Y-1.2665
X3.1016Y-1.3665
X3.1016Y-1.4665
X3.1016Y-1.5665
X3.1016Y-1.6665
X3.1016Y-1.7665
X3.1016Y-1.8665
X3.1016Y-1.9665
X3.1016Y-2.0665
X3.1016Y-2.1665
X3.1016Y-2.2665
X3.7016Y-1.1665
X3.7016Y-1.1665
X3.7016Y-1.2665
X3.7016Y-1.3665
X3.7016Y-1.4665
X3.7016Y-1.5665
X3.7016Y-1.6665
X3.7016Y-1.7665
X3.7016Y-1.8665
X3.7016Y-1.9665
X3.7016Y-2.0665
X3.7016Y-2.1665
X3.7016Y-2.2665
T5
X3.9705Y-1.9547
X3.9705Y-1.2854
X4.1674Y-2.0374
X4.1674Y-1.3681
X4.3642Y-1.9547
X4.3642Y-1.2854
X4.6792Y-1.1917
X4.6792Y-1.861
X4.8761Y-1.2744
X4.8761Y-1.9437
X5.0729Y-1.1917
X5.0729Y-1.861
X5.3879Y-1.2854
X5.3879Y-1.9547
X5.5847Y-1.3681
X5.5847Y-2.0374
X5.7816Y-1.2854
X5.7816Y-1.9547
X6.0965Y-1.8701
X6.0965Y-2.5393
X6.2934Y-1.9527
X6.2934Y-2.622
X6.4902Y-1.8701
X6.4902Y-2.5393
T6
X6.0729Y-0.8076
X6.191Y-0.8076
T7
X3.9509Y-1.8051
X3.9509Y-1.1358
X4.3839Y-1.8051
X4.3839Y-1.1358
X4.6595Y-1.0421
X4.6595Y-1.7114
X5.0926Y-1.0421
X5.0926Y-1.7114
X5.3682Y-1.1358
X5.3682Y-1.8051
X5.8012Y-1.1358
X5.8012Y-1.8051
X6.0768Y-1.7204
X6.0768Y-2.3897
X6.5099Y-1.7204
X6.5099Y-2.3897
T8
X4.1674Y-1.8051
X4.1674Y-1.1358
X4.8761Y-1.0421
X4.8761Y-1.7114
X5.5847Y-1.1358
X5.5847Y-1.8051
X6.2934Y-1.7204
X6.2934Y-2.3897
T0
M30
