%TF.GenerationSoftware,KiCad,Pcbnew,(6.0.10)*%
%TF.CreationDate,2023-01-30T22:50:37-06:00*%
%TF.ProjectId,mypaintbrush_aggressive,6d797061-696e-4746-9272-7573685f6167,rev?*%
%TF.SameCoordinates,Original*%
%TF.FileFunction,Copper,L1,Top*%
%TF.FilePolarity,Positive*%
%FSLAX46Y46*%
G04 Gerber Fmt 4.6, Leading zero omitted, Abs format (unit mm)*
G04 Created by KiCad (PCBNEW (6.0.10)) date 2023-01-30 22:50:37*
%MOMM*%
%LPD*%
G01*
G04 APERTURE LIST*
G04 Aperture macros list*
%AMFreePoly0*
4,1,6,0.600000,0.200000,0.000000,-0.400000,-0.600000,0.200000,-0.600000,0.400000,0.600000,0.400000,0.600000,0.200000,0.600000,0.200000,$1*%
%AMFreePoly1*
4,1,5,0.125000,-0.500000,-0.125000,-0.500000,-0.125000,0.500000,0.125000,0.500000,0.125000,-0.500000,0.125000,-0.500000,$1*%
%AMFreePoly2*
4,1,49,0.088388,4.152388,0.850389,3.390388,0.863708,3.372551,0.867189,3.369530,0.867982,3.366827,0.871852,3.361644,0.878333,3.331543,0.887000,3.302000,0.887000,0.762000,0.883805,0.739969,0.884131,0.735371,0.882780,0.732898,0.881852,0.726498,0.865154,0.700638,0.850389,0.673612,0.088388,-0.088388,0.064607,-0.106146,0.062500,-0.108253,0.061385,-0.108552,0.059644,-0.109852,
0.043810,-0.113261,0.000000,-0.125000,-0.004774,-0.123721,-0.009154,-0.124664,-0.028953,-0.117242,-0.062500,-0.108253,-0.068237,-0.102516,-0.075052,-0.099961,-0.087614,-0.083139,-0.108253,-0.062500,-0.111178,-0.051584,-0.117161,-0.043572,-0.118539,-0.024114,-0.125000,0.000000,-0.121239,0.014035,-0.122131,0.026629,-0.113759,0.041953,-0.108253,0.062500,-0.095642,0.075111,-0.088388,0.088388,
0.637000,0.813777,0.637000,3.250223,-0.088388,3.975612,-0.109852,4.004356,-0.124664,4.073154,-0.099961,4.139052,-0.043572,4.181161,0.026629,4.186131,0.088388,4.152388,0.088388,4.152388,$1*%
%AMFreePoly3*
4,1,6,0.600000,-0.250000,-0.600000,-0.250000,-0.600000,1.000000,0.000000,0.400000,0.600000,1.000000,0.600000,-0.250000,0.600000,-0.250000,$1*%
%AMFreePoly4*
4,1,49,0.088388,4.152388,0.854389,3.386388,0.867708,3.368551,0.871189,3.365530,0.871982,3.362827,0.875852,3.357644,0.882333,3.327543,0.891000,3.298000,0.891000,0.766000,0.887805,0.743969,0.888131,0.739371,0.886780,0.736898,0.885852,0.730498,0.869154,0.704638,0.854389,0.677612,0.088388,-0.088388,0.064607,-0.106146,0.062500,-0.108253,0.061385,-0.108552,0.059644,-0.109852,
0.043810,-0.113261,0.000000,-0.125000,-0.004774,-0.123721,-0.009154,-0.124664,-0.028953,-0.117242,-0.062500,-0.108253,-0.068237,-0.102516,-0.075052,-0.099961,-0.087614,-0.083139,-0.108253,-0.062500,-0.111178,-0.051584,-0.117161,-0.043572,-0.118539,-0.024114,-0.125000,0.000000,-0.121239,0.014035,-0.122131,0.026629,-0.113759,0.041953,-0.108253,0.062500,-0.095642,0.075111,-0.088388,0.088388,
0.641000,0.817777,0.641000,3.246223,-0.088388,3.975612,-0.109852,4.004356,-0.124664,4.073154,-0.099961,4.139052,-0.043572,4.181161,0.026629,4.186131,0.088388,4.152388,0.088388,4.152388,$1*%
G04 Aperture macros list end*
%TA.AperFunction,ComponentPad*%
%ADD10C,2.262000*%
%TD*%
%TA.AperFunction,SMDPad,CuDef*%
%ADD11FreePoly0,270.000000*%
%TD*%
%TA.AperFunction,ComponentPad*%
%ADD12C,1.600000*%
%TD*%
%TA.AperFunction,SMDPad,CuDef*%
%ADD13FreePoly1,90.000000*%
%TD*%
%TA.AperFunction,SMDPad,CuDef*%
%ADD14FreePoly1,270.000000*%
%TD*%
%TA.AperFunction,SMDPad,CuDef*%
%ADD15FreePoly0,90.000000*%
%TD*%
%TA.AperFunction,ComponentPad*%
%ADD16R,1.600000X1.600000*%
%TD*%
%TA.AperFunction,SMDPad,CuDef*%
%ADD17FreePoly2,90.000000*%
%TD*%
%TA.AperFunction,ComponentPad*%
%ADD18C,0.800000*%
%TD*%
%TA.AperFunction,SMDPad,CuDef*%
%ADD19FreePoly3,90.000000*%
%TD*%
%TA.AperFunction,SMDPad,CuDef*%
%ADD20FreePoly4,270.000000*%
%TD*%
%TA.AperFunction,SMDPad,CuDef*%
%ADD21FreePoly3,270.000000*%
%TD*%
%TA.AperFunction,ComponentPad*%
%ADD22C,1.397000*%
%TD*%
%TA.AperFunction,WasherPad*%
%ADD23C,1.000000*%
%TD*%
%TA.AperFunction,SMDPad,CuDef*%
%ADD24R,0.900000X0.900000*%
%TD*%
%TA.AperFunction,SMDPad,CuDef*%
%ADD25R,0.900000X1.250000*%
%TD*%
%TA.AperFunction,ViaPad*%
%ADD26C,0.800000*%
%TD*%
%TA.AperFunction,Conductor*%
%ADD27C,0.250000*%
%TD*%
%TA.AperFunction,Conductor*%
%ADD28C,0.508000*%
%TD*%
G04 APERTURE END LIST*
D10*
%TO.P,KEY2,1,1*%
%TO.N,GND*%
X123851736Y-32369424D03*
%TO.P,KEY2,2,2*%
%TO.N,R1C2*%
X118851736Y-30269424D03*
X128851736Y-30269424D03*
%TD*%
%TO.P,KEY3,1,1*%
%TO.N,GND*%
X141851738Y-34749426D03*
%TO.P,KEY3,2,2*%
%TO.N,R1C3*%
X146851738Y-32649426D03*
X136851738Y-32649426D03*
%TD*%
%TO.P,KEY4,1,1*%
%TO.N,GND*%
X159851734Y-49599425D03*
%TO.P,KEY4,2,2*%
%TO.N,R1C4*%
X164851734Y-47499425D03*
X154851734Y-47499425D03*
%TD*%
%TO.P,KEY6,1,1*%
%TO.N,GND*%
X123851738Y-49369424D03*
%TO.P,KEY6,2,2*%
%TO.N,R2C2*%
X128851738Y-47269424D03*
X118851738Y-47269424D03*
%TD*%
%TO.P,KEY7,1,1*%
%TO.N,GND*%
X141851738Y-51749426D03*
%TO.P,KEY7,2,2*%
%TO.N,R2C3*%
X146851738Y-49649426D03*
X136851738Y-49649426D03*
%TD*%
%TO.P,KEY8,1,1*%
%TO.N,GND*%
X159851736Y-66599424D03*
%TO.P,KEY8,2,2*%
%TO.N,R2C4*%
X164851736Y-64499424D03*
X154851736Y-64499424D03*
%TD*%
%TO.P,KEY1,1,1*%
%TO.N,GND*%
X105851736Y-34749424D03*
%TO.P,KEY1,2,2*%
%TO.N,R1C1*%
X110851736Y-32649424D03*
X100851736Y-32649424D03*
%TD*%
%TO.P,KEY5,1,1*%
%TO.N,GND*%
X105851735Y-51749424D03*
%TO.P,KEY5,2,2*%
%TO.N,R2C1*%
X110851735Y-49649424D03*
X100851735Y-49649424D03*
%TD*%
D11*
%TO.P,U1,*%
%TO.N,*%
X92243737Y-44869424D03*
D12*
X78781737Y-52489424D03*
D13*
X80051737Y-47409424D03*
X80051737Y-55029424D03*
D12*
X94021737Y-34709424D03*
D11*
X92243737Y-39789424D03*
D13*
X80051737Y-37249424D03*
D14*
X92751737Y-47409424D03*
D12*
X94021737Y-52489424D03*
X94021737Y-29629424D03*
D14*
X92751737Y-49949424D03*
D13*
X80051737Y-39789424D03*
D12*
X94021737Y-37249424D03*
D11*
X92243737Y-47409424D03*
D15*
X80559737Y-29629424D03*
X80559737Y-49949424D03*
D12*
X94021737Y-44869424D03*
D14*
X92751737Y-34709424D03*
X92751737Y-57569424D03*
D11*
X92243737Y-29629424D03*
D12*
X78781737Y-55029424D03*
D13*
X80051737Y-32169424D03*
D16*
X78781737Y-29629424D03*
D11*
X92243737Y-52489424D03*
D12*
X78781737Y-39789424D03*
D14*
X92751737Y-29629424D03*
D12*
X78781737Y-57569424D03*
D15*
X80559737Y-57569424D03*
D13*
X80051737Y-42329424D03*
D11*
X92243737Y-57569424D03*
D12*
X78781737Y-32169424D03*
X78781737Y-37249424D03*
X94021737Y-49949424D03*
D11*
X92243737Y-49949424D03*
D15*
X80559737Y-55029424D03*
D12*
X94021737Y-39789424D03*
D11*
X92243737Y-32169424D03*
D15*
X80559737Y-37249424D03*
D12*
X78781737Y-29629424D03*
X78781737Y-42329424D03*
D15*
X80559737Y-42329424D03*
X80559737Y-44869424D03*
D14*
X92751737Y-37249424D03*
D13*
X80051737Y-52489424D03*
D15*
X80559737Y-39789424D03*
D11*
X92243737Y-42329424D03*
D14*
X92751737Y-52489424D03*
D13*
X80051737Y-57569424D03*
D12*
X78781737Y-44869424D03*
D11*
X92243737Y-55029424D03*
X92243737Y-34709424D03*
X92243737Y-37249424D03*
D13*
X80051737Y-44869424D03*
D14*
X92751737Y-42329424D03*
D12*
X94021737Y-47409424D03*
D13*
X80051737Y-49949424D03*
D12*
X78781737Y-47409424D03*
D14*
X92751737Y-44869424D03*
X92751737Y-39789424D03*
D15*
X80559737Y-32169424D03*
X80559737Y-52489424D03*
D12*
X94021737Y-55029424D03*
X78781737Y-49949424D03*
D14*
X92751737Y-55029424D03*
D12*
X94021737Y-32169424D03*
D15*
X80559737Y-34709424D03*
D12*
X78781737Y-34709424D03*
D13*
X80051737Y-29629424D03*
D12*
X94021737Y-42329424D03*
D13*
X80051737Y-34709424D03*
D12*
X94021737Y-57569424D03*
D15*
X80559737Y-47409424D03*
D14*
X92751737Y-32169424D03*
D17*
%TO.P,U1,1,TX*%
%TO.N,unconnected-(U1-Pad1)*%
X85639737Y-29629424D03*
D18*
X85639737Y-29629424D03*
D19*
X81575737Y-29629424D03*
D17*
%TO.P,U1,2,RX*%
%TO.N,unconnected-(U1-Pad2)*%
X85639737Y-32169424D03*
D18*
X85639737Y-32169424D03*
D19*
X81575737Y-32169424D03*
%TO.P,U1,3,GND*%
%TO.N,GND*%
X81575737Y-34709424D03*
D17*
X85639737Y-34709424D03*
D18*
X85639737Y-34709424D03*
%TO.P,U1,4,GND*%
X85639737Y-37249424D03*
D19*
X81575737Y-37249424D03*
D17*
X85639737Y-37249424D03*
D18*
%TO.P,U1,5,SCL*%
%TO.N,SDA*%
X85639737Y-39789424D03*
D17*
X85639737Y-39789424D03*
D19*
X81575737Y-39789424D03*
%TO.P,U1,6,SDA*%
%TO.N,SCL*%
X81575737Y-42329424D03*
D18*
X85639737Y-42329424D03*
D17*
X85639737Y-42329424D03*
D18*
%TO.P,U1,7,D4*%
%TO.N,unconnected-(U1-Pad7)*%
X85639737Y-44869424D03*
D19*
X81575737Y-44869424D03*
D17*
X85639737Y-44869424D03*
D19*
%TO.P,U1,8,C6*%
%TO.N,unconnected-(U1-Pad8)*%
X81575737Y-47409424D03*
D17*
X85639737Y-47409424D03*
D18*
X85639737Y-47409424D03*
%TO.P,U1,9,D7*%
%TO.N,unconnected-(U1-Pad9)*%
X85639737Y-49949424D03*
D17*
X85639737Y-49949424D03*
D19*
X81575737Y-49949424D03*
%TO.P,U1,10,E6*%
%TO.N,unconnected-(U1-Pad10)*%
X81575737Y-52489424D03*
D18*
X85639737Y-52489424D03*
D17*
X85639737Y-52489424D03*
D19*
%TO.P,U1,11,B4*%
%TO.N,unconnected-(U1-Pad11)*%
X81575737Y-55029424D03*
D17*
X85639737Y-55029424D03*
D18*
X85639737Y-55029424D03*
D19*
%TO.P,U1,12,B5*%
%TO.N,unconnected-(U1-Pad12)*%
X81575737Y-57569424D03*
D17*
X85639737Y-57569424D03*
D18*
X85639737Y-57569424D03*
%TO.P,U1,13,B6*%
%TO.N,R2C4*%
X87163737Y-57569424D03*
D20*
X87163737Y-57569424D03*
D21*
X91227737Y-57569424D03*
D18*
%TO.P,U1,14,B2*%
%TO.N,R2C3*%
X87163737Y-55029424D03*
D20*
X87163737Y-55029424D03*
D21*
X91227737Y-55029424D03*
D18*
%TO.P,U1,15,B3*%
%TO.N,R2C2*%
X87163737Y-52489424D03*
D21*
X91227737Y-52489424D03*
D20*
X87163737Y-52489424D03*
%TO.P,U1,16,B1*%
%TO.N,R2C1*%
X87163737Y-49949424D03*
D18*
X87163737Y-49949424D03*
D21*
X91227737Y-49949424D03*
%TO.P,U1,17,F7*%
%TO.N,R1C4*%
X91227737Y-47409424D03*
D20*
X87163737Y-47409424D03*
D18*
X87163737Y-47409424D03*
D20*
%TO.P,U1,18,F6*%
%TO.N,R1C3*%
X87163737Y-44869424D03*
D18*
X87163737Y-44869424D03*
D21*
X91227737Y-44869424D03*
D20*
%TO.P,U1,19,F5*%
%TO.N,R1C2*%
X87163737Y-42329424D03*
D18*
X87163737Y-42329424D03*
D21*
X91227737Y-42329424D03*
D18*
%TO.P,U1,20,F4*%
%TO.N,R1C1*%
X87163737Y-39789424D03*
D21*
X91227737Y-39789424D03*
D20*
X87163737Y-39789424D03*
D21*
%TO.P,U1,21,VCC*%
%TO.N,VCC*%
X91227737Y-37249424D03*
D18*
X87163737Y-37249424D03*
D20*
X87163737Y-37249424D03*
D21*
%TO.P,U1,22,RST*%
%TO.N,RST*%
X91227737Y-34709424D03*
D20*
X87163737Y-34709424D03*
D18*
X87163737Y-34709424D03*
%TO.P,U1,23,GND*%
%TO.N,GND*%
X87163737Y-32169424D03*
D21*
X91227737Y-32169424D03*
D20*
X87163737Y-32169424D03*
%TO.P,U1,24,RAW*%
%TO.N,raw*%
X87163737Y-29629424D03*
D21*
X91227737Y-29629424D03*
D18*
X87163737Y-29629424D03*
%TD*%
D22*
%TO.P,Bat+1,1,1*%
%TO.N,BT+*%
X94021737Y-27129424D03*
%TD*%
%TO.P,BatGND1,1,1*%
%TO.N,GND*%
X78781737Y-27129424D03*
%TD*%
D23*
%TO.P,SW_POWER1,*%
%TO.N,*%
X157251736Y-20511924D03*
X154251736Y-20511924D03*
D24*
%TO.P,SW_POWER1,0*%
%TO.N,N/C*%
X152051736Y-21611924D03*
X152051736Y-19411924D03*
X159451736Y-21611924D03*
X159451736Y-19411924D03*
D25*
%TO.P,SW_POWER1,1,A*%
%TO.N,raw*%
X158001736Y-22586924D03*
%TO.P,SW_POWER1,2,B*%
%TO.N,BT+*%
X155001736Y-22586923D03*
%TO.P,SW_POWER1,3,C*%
%TO.N,unconnected-(SW_POWER1-Pad3)*%
X153501736Y-22586924D03*
%TD*%
D26*
%TO.N,BT+*%
X155826739Y-24549424D03*
%TO.N,raw*%
X155826739Y-25549424D03*
%TD*%
D27*
%TO.N,R1C1*%
X91227737Y-39789424D02*
X92642737Y-38374424D01*
X95126736Y-38374424D02*
X100851736Y-32649424D01*
X92642737Y-38374424D02*
X95126736Y-38374424D01*
%TO.N,R1C2*%
X108206736Y-40914424D02*
X118851736Y-30269424D01*
X91227737Y-42329424D02*
X92642737Y-40914424D01*
X92642737Y-40914424D02*
X108206736Y-40914424D01*
%TO.N,R1C3*%
X98736736Y-41364424D02*
X117436736Y-41364424D01*
X117436736Y-41364424D02*
X126151734Y-32649426D01*
X96356736Y-43744424D02*
X98736736Y-41364424D01*
X126151734Y-32649426D02*
X136851738Y-32649426D01*
X92352737Y-43744424D02*
X96356736Y-43744424D01*
X91227737Y-44869424D02*
X92352737Y-43744424D01*
%TO.N,R1C4*%
X99716736Y-48534424D02*
X106436736Y-41814424D01*
X91227737Y-47409424D02*
X92352737Y-48534424D01*
X106436736Y-41814424D02*
X117623132Y-41814424D01*
X92352737Y-48534424D02*
X99716736Y-48534424D01*
X117638132Y-41799424D02*
X122566737Y-41799424D01*
X117623132Y-41814424D02*
X117638132Y-41799424D01*
X123016737Y-41349424D02*
X148701733Y-41349424D01*
X148701733Y-41349424D02*
X154851734Y-47499425D01*
X122566737Y-41799424D02*
X123016737Y-41349424D01*
D28*
%TO.N,R2C1*%
X99297735Y-51203424D02*
X92481737Y-51203424D01*
X92481737Y-51203424D02*
X91227737Y-49949424D01*
X100851735Y-49649424D02*
X99297735Y-51203424D01*
D27*
%TO.N,R2C2*%
X91227737Y-52489424D02*
X92642737Y-53904424D01*
X92642737Y-53904424D02*
X112216738Y-53904424D01*
X112216738Y-53904424D02*
X118851738Y-47269424D01*
%TO.N,R2C3*%
X92352737Y-56154424D02*
X130346740Y-56154424D01*
X91227737Y-55029424D02*
X92352737Y-56154424D01*
X130346740Y-56154424D02*
X136851738Y-49649426D01*
%TO.N,R2C4*%
X91227737Y-57569424D02*
X92352737Y-58694424D01*
X92352737Y-58694424D02*
X149046736Y-58694424D01*
X149046736Y-58694424D02*
X154851736Y-64499424D01*
D28*
%TO.N,BT+*%
X97608238Y-23542923D02*
X94021737Y-27129424D01*
X152396499Y-23542923D02*
X97608238Y-23542923D01*
X153403000Y-24549424D02*
X152396499Y-23542923D01*
X155076739Y-23799424D02*
X155826739Y-24549424D01*
X155076739Y-23279424D02*
X155076739Y-23799424D01*
X155826739Y-24549424D02*
X153403000Y-24549424D01*
%TO.N,raw*%
X153401736Y-25549424D02*
X155826739Y-25549424D01*
X156401736Y-25549424D02*
X155826739Y-25549424D01*
X152103235Y-24250923D02*
X98530119Y-24250923D01*
X92575237Y-28281924D02*
X91227737Y-29629424D01*
X94499119Y-28281924D02*
X92575237Y-28281924D01*
X94499119Y-28281924D02*
X98530119Y-24250923D01*
X152103235Y-24250923D02*
X153401736Y-25549424D01*
X158001736Y-23949424D02*
X158001736Y-22586924D01*
X158001736Y-23949424D02*
X156401736Y-25549424D01*
%TD*%
M02*
