%TF.GenerationSoftware,KiCad,Pcbnew,(6.0.10)*%
%TF.CreationDate,2023-01-30T20:00:38-06:00*%
%TF.ProjectId,mypaintbrush_normal,6d797061-696e-4746-9272-7573685f6e6f,rev?*%
%TF.SameCoordinates,Original*%
%TF.FileFunction,Copper,L2,Bot*%
%TF.FilePolarity,Positive*%
%FSLAX46Y46*%
G04 Gerber Fmt 4.6, Leading zero omitted, Abs format (unit mm)*
G04 Created by KiCad (PCBNEW (6.0.10)) date 2023-01-30 20:00:38*
%MOMM*%
%LPD*%
G01*
G04 APERTURE LIST*
G04 Aperture macros list*
%AMFreePoly0*
4,1,6,0.600000,0.200000,0.000000,-0.400000,-0.600000,0.200000,-0.600000,0.400000,0.600000,0.400000,0.600000,0.200000,0.600000,0.200000,$1*%
%AMFreePoly1*
4,1,5,0.125000,-0.500000,-0.125000,-0.500000,-0.125000,0.500000,0.125000,0.500000,0.125000,-0.500000,0.125000,-0.500000,$1*%
%AMFreePoly2*
4,1,49,0.004773,0.123721,0.009154,0.124665,0.028961,0.117240,0.062500,0.108253,0.068237,0.102516,0.075053,0.099961,0.087617,0.083136,0.108253,0.062500,0.111178,0.051584,0.117161,0.043572,0.118539,0.024114,0.125000,0.000000,0.121239,-0.014035,0.122131,-0.026629,0.113759,-0.041951,0.108253,-0.062500,0.095644,-0.075109,0.088389,-0.088388,-0.641000,-0.817776,-0.641000,-4.770224,
0.088389,-5.499612,0.109852,-5.528356,0.124665,-5.597154,0.099961,-5.663053,0.043572,-5.705161,-0.026629,-5.710131,-0.088388,-5.676389,-0.854388,-4.910388,-0.867707,-4.892552,-0.871189,-4.889530,-0.871982,-4.886826,-0.875852,-4.881644,-0.882331,-4.851549,-0.891000,-4.822000,-0.891000,-0.766000,-0.887805,-0.743969,-0.888131,-0.739371,-0.886780,-0.736898,-0.885852,-0.730498,-0.869151,-0.704632,
-0.854388,-0.677612,-0.088388,0.088389,-0.064606,0.106147,-0.062500,0.108253,-0.061385,0.108552,-0.059644,0.109852,-0.043806,0.113262,0.000000,0.125000,0.004773,0.123721,0.004773,0.123721,$1*%
%AMFreePoly3*
4,1,6,0.600000,-0.250000,-0.600000,-0.250000,-0.600000,1.000000,0.000000,0.400000,0.600000,1.000000,0.600000,-0.250000,0.600000,-0.250000,$1*%
G04 Aperture macros list end*
%TA.AperFunction,ComponentPad*%
%ADD10C,2.262000*%
%TD*%
%TA.AperFunction,SMDPad,CuDef*%
%ADD11FreePoly0,270.000000*%
%TD*%
%TA.AperFunction,SMDPad,CuDef*%
%ADD12FreePoly1,270.000000*%
%TD*%
%TA.AperFunction,ComponentPad*%
%ADD13C,1.600000*%
%TD*%
%TA.AperFunction,ComponentPad*%
%ADD14R,1.600000X1.600000*%
%TD*%
%TA.AperFunction,SMDPad,CuDef*%
%ADD15FreePoly0,90.000000*%
%TD*%
%TA.AperFunction,SMDPad,CuDef*%
%ADD16FreePoly1,90.000000*%
%TD*%
%TA.AperFunction,ComponentPad*%
%ADD17C,0.800000*%
%TD*%
%TA.AperFunction,SMDPad,CuDef*%
%ADD18FreePoly2,90.000000*%
%TD*%
%TA.AperFunction,SMDPad,CuDef*%
%ADD19FreePoly3,270.000000*%
%TD*%
%TA.AperFunction,SMDPad,CuDef*%
%ADD20FreePoly3,90.000000*%
%TD*%
%TA.AperFunction,SMDPad,CuDef*%
%ADD21FreePoly2,270.000000*%
%TD*%
%TA.AperFunction,ComponentPad*%
%ADD22C,1.397000*%
%TD*%
%TA.AperFunction,WasherPad*%
%ADD23C,1.000000*%
%TD*%
%TA.AperFunction,SMDPad,CuDef*%
%ADD24R,0.900000X0.900000*%
%TD*%
%TA.AperFunction,SMDPad,CuDef*%
%ADD25R,0.900000X1.250000*%
%TD*%
%TA.AperFunction,ViaPad*%
%ADD26C,0.800000*%
%TD*%
%TA.AperFunction,Conductor*%
%ADD27C,0.508000*%
%TD*%
%TA.AperFunction,Conductor*%
%ADD28C,0.250000*%
%TD*%
%TA.AperFunction,Conductor*%
%ADD29C,0.254000*%
%TD*%
G04 APERTURE END LIST*
D10*
%TO.P,KEY2,1,1*%
%TO.N,GND*%
X123901737Y-37119424D03*
%TO.P,KEY2,2,2*%
%TO.N,R1C2*%
X128901737Y-35019424D03*
X118901737Y-35019424D03*
%TD*%
%TO.P,KEY3,1,1*%
%TO.N,GND*%
X141901739Y-39499426D03*
%TO.P,KEY3,2,2*%
%TO.N,R1C3*%
X136901739Y-37399426D03*
X146901739Y-37399426D03*
%TD*%
%TO.P,KEY4,1,1*%
%TO.N,GND*%
X159901737Y-44249424D03*
%TO.P,KEY4,2,2*%
%TO.N,R1C4*%
X154901737Y-42149424D03*
X164901737Y-42149424D03*
%TD*%
%TO.P,KEY6,1,1*%
%TO.N,GND*%
X123901739Y-54119424D03*
%TO.P,KEY6,2,2*%
%TO.N,R2C2*%
X118901739Y-52019424D03*
X128901739Y-52019424D03*
%TD*%
%TO.P,KEY7,1,1*%
%TO.N,GND*%
X141901739Y-56499426D03*
%TO.P,KEY7,2,2*%
%TO.N,R2C3*%
X136901739Y-54399426D03*
X146901739Y-54399426D03*
%TD*%
%TO.P,KEY8,1,1*%
%TO.N,GND*%
X159901739Y-61249423D03*
%TO.P,KEY8,2,2*%
%TO.N,R2C4*%
X154901739Y-59149423D03*
X164901739Y-59149423D03*
%TD*%
%TO.P,KEY1,1,1*%
%TO.N,GND*%
X105901737Y-39499424D03*
%TO.P,KEY1,2,2*%
%TO.N,R1C1*%
X100901737Y-37399424D03*
X110901737Y-37399424D03*
%TD*%
%TO.P,KEY5,1,1*%
%TO.N,GND*%
X105901736Y-56499424D03*
%TO.P,KEY5,2,2*%
%TO.N,R2C1*%
X110901736Y-54399424D03*
X100901736Y-54399424D03*
%TD*%
D11*
%TO.P,U1,*%
%TO.N,*%
X92243737Y-47409424D03*
D12*
X92751737Y-57569424D03*
D11*
X92243737Y-55029424D03*
D13*
X94021737Y-39789424D03*
D11*
X92243737Y-39789424D03*
X92243737Y-34709424D03*
D14*
X94021737Y-29629424D03*
D12*
X92751737Y-34709424D03*
D15*
X80559737Y-42329424D03*
D16*
X80051737Y-57569424D03*
D12*
X92751737Y-37249424D03*
D13*
X94021737Y-29629424D03*
D16*
X80051737Y-49949424D03*
D15*
X80559737Y-32169424D03*
D13*
X94021737Y-32169424D03*
X94021737Y-37249424D03*
X78781737Y-32169424D03*
X94021737Y-47409424D03*
D15*
X80559737Y-39789424D03*
D16*
X80051737Y-47409424D03*
D15*
X80559737Y-37249424D03*
X80559737Y-29629424D03*
D12*
X92751737Y-44869424D03*
D13*
X94021737Y-55029424D03*
D16*
X80051737Y-29629424D03*
D15*
X80559737Y-52489424D03*
D13*
X94021737Y-49949424D03*
D12*
X92751737Y-42329424D03*
D13*
X78781737Y-55029424D03*
D16*
X80051737Y-42329424D03*
D13*
X78781737Y-47409424D03*
D11*
X92243737Y-49949424D03*
D13*
X78781737Y-34709424D03*
D16*
X80051737Y-34709424D03*
D13*
X94021737Y-42329424D03*
X78781737Y-44869424D03*
X94021737Y-52489424D03*
D16*
X80051737Y-32169424D03*
D11*
X92243737Y-29629424D03*
X92243737Y-57569424D03*
D15*
X80559737Y-57569424D03*
D12*
X92751737Y-29629424D03*
D11*
X92243737Y-32169424D03*
D15*
X80559737Y-44869424D03*
D13*
X94021737Y-34709424D03*
D12*
X92751737Y-32169424D03*
X92751737Y-47409424D03*
X92751737Y-52489424D03*
D13*
X94021737Y-57569424D03*
D16*
X80051737Y-44869424D03*
X80051737Y-52489424D03*
X80051737Y-55029424D03*
D13*
X78781737Y-39789424D03*
X94021737Y-44869424D03*
D12*
X92751737Y-55029424D03*
D11*
X92243737Y-42329424D03*
D13*
X78781737Y-57569424D03*
D16*
X80051737Y-37249424D03*
D12*
X92751737Y-49949424D03*
D13*
X78781737Y-29629424D03*
D15*
X80559737Y-34709424D03*
D11*
X92243737Y-37249424D03*
D12*
X92751737Y-39789424D03*
D16*
X80051737Y-39789424D03*
D15*
X80559737Y-49949424D03*
D11*
X92243737Y-44869424D03*
D15*
X80559737Y-47409424D03*
X80559737Y-55029424D03*
D13*
X78781737Y-52489424D03*
X78781737Y-42329424D03*
X78781737Y-37249424D03*
D11*
X92243737Y-52489424D03*
D13*
X78781737Y-49949424D03*
D17*
%TO.P,U1,1,TX*%
%TO.N,unconnected-(U1-Pad1)*%
X85639737Y-29629424D03*
D18*
X85639737Y-29629424D03*
D19*
X91227737Y-29629424D03*
D18*
%TO.P,U1,2,RX*%
%TO.N,unconnected-(U1-Pad2)*%
X85639737Y-32169424D03*
D17*
X85639737Y-32169424D03*
D19*
X91227737Y-32169424D03*
D18*
%TO.P,U1,3,GND*%
%TO.N,GND*%
X85639737Y-34709424D03*
D17*
X85639737Y-34709424D03*
D19*
X91227737Y-34709424D03*
D17*
%TO.P,U1,4,GND*%
X85639737Y-37249424D03*
D18*
X85639737Y-37249424D03*
D19*
X91227737Y-37249424D03*
%TO.P,U1,5,SCL*%
%TO.N,SDA*%
X91227737Y-39789424D03*
D17*
X85639737Y-39789424D03*
D18*
X85639737Y-39789424D03*
D17*
%TO.P,U1,6,SDA*%
%TO.N,SCL*%
X85639737Y-42329424D03*
D18*
X85639737Y-42329424D03*
D19*
X91227737Y-42329424D03*
D18*
%TO.P,U1,7,D4*%
%TO.N,unconnected-(U1-Pad7)*%
X85639737Y-44869424D03*
D17*
X85639737Y-44869424D03*
D19*
X91227737Y-44869424D03*
D18*
%TO.P,U1,8,C6*%
%TO.N,unconnected-(U1-Pad8)*%
X85639737Y-47409424D03*
D19*
X91227737Y-47409424D03*
D17*
X85639737Y-47409424D03*
D18*
%TO.P,U1,9,D7*%
%TO.N,unconnected-(U1-Pad9)*%
X85639737Y-49949424D03*
D17*
X85639737Y-49949424D03*
D19*
X91227737Y-49949424D03*
D18*
%TO.P,U1,10,E6*%
%TO.N,unconnected-(U1-Pad10)*%
X85639737Y-52489424D03*
D19*
X91227737Y-52489424D03*
D17*
X85639737Y-52489424D03*
%TO.P,U1,11,B4*%
%TO.N,unconnected-(U1-Pad11)*%
X85639737Y-55029424D03*
D19*
X91227737Y-55029424D03*
D18*
X85639737Y-55029424D03*
D17*
%TO.P,U1,12,B5*%
%TO.N,unconnected-(U1-Pad12)*%
X85639737Y-57569424D03*
D19*
X91227737Y-57569424D03*
D18*
X85639737Y-57569424D03*
D20*
%TO.P,U1,13,B6*%
%TO.N,R2C4*%
X81575737Y-57569424D03*
D17*
X87163737Y-57569424D03*
D21*
X87163737Y-57569424D03*
D20*
%TO.P,U1,14,B2*%
%TO.N,R2C3*%
X81575737Y-55029424D03*
D21*
X87163737Y-55029424D03*
D17*
X87163737Y-55029424D03*
D20*
%TO.P,U1,15,B3*%
%TO.N,R2C2*%
X81575737Y-52489424D03*
D17*
X87163737Y-52489424D03*
D21*
X87163737Y-52489424D03*
D20*
%TO.P,U1,16,B1*%
%TO.N,R2C1*%
X81575737Y-49949424D03*
D21*
X87163737Y-49949424D03*
D17*
X87163737Y-49949424D03*
D21*
%TO.P,U1,17,F7*%
%TO.N,R1C4*%
X87163737Y-47409424D03*
D20*
X81575737Y-47409424D03*
D17*
X87163737Y-47409424D03*
%TO.P,U1,18,F6*%
%TO.N,R1C3*%
X87163737Y-44869424D03*
D21*
X87163737Y-44869424D03*
D20*
X81575737Y-44869424D03*
D21*
%TO.P,U1,19,F5*%
%TO.N,R1C2*%
X87163737Y-42329424D03*
D17*
X87163737Y-42329424D03*
D20*
X81575737Y-42329424D03*
%TO.P,U1,20,F4*%
%TO.N,R1C1*%
X81575737Y-39789424D03*
D21*
X87163737Y-39789424D03*
D17*
X87163737Y-39789424D03*
D21*
%TO.P,U1,21,VCC*%
%TO.N,VCC*%
X87163737Y-37249424D03*
D20*
X81575737Y-37249424D03*
D17*
X87163737Y-37249424D03*
D21*
%TO.P,U1,22,RST*%
%TO.N,RST*%
X87163737Y-34709424D03*
D20*
X81575737Y-34709424D03*
D17*
X87163737Y-34709424D03*
D20*
%TO.P,U1,23,GND*%
%TO.N,GND*%
X81575737Y-32169424D03*
D17*
X87163737Y-32169424D03*
D21*
X87163737Y-32169424D03*
D20*
%TO.P,U1,24,RAW*%
%TO.N,raw*%
X81575737Y-29629424D03*
D17*
X87163737Y-29629424D03*
D21*
X87163737Y-29629424D03*
%TD*%
D22*
%TO.P,Bat+1,1,1*%
%TO.N,BT+*%
X94021737Y-27129424D03*
%TD*%
%TO.P,BatGND1,1,1*%
%TO.N,GND*%
X78781737Y-27129424D03*
%TD*%
D23*
%TO.P,SW_POWER1,*%
%TO.N,*%
X155001736Y-20511924D03*
X152001736Y-20511924D03*
D24*
%TO.P,SW_POWER1,0*%
%TO.N,N/C*%
X157201736Y-19411924D03*
X149801736Y-19411924D03*
X149801736Y-21611924D03*
X157201736Y-21611924D03*
D25*
%TO.P,SW_POWER1,1,A*%
%TO.N,raw*%
X151251736Y-22586924D03*
%TO.P,SW_POWER1,2,B*%
%TO.N,BT+*%
X154251736Y-22586923D03*
%TO.P,SW_POWER1,3,C*%
%TO.N,unconnected-(SW_POWER1-Pad3)*%
X155751736Y-22586924D03*
%TD*%
D26*
%TO.N,GND*%
X94001736Y-63099424D03*
%TO.N,RST*%
X94001735Y-59974423D03*
%TO.N,BT+*%
X153576739Y-24549424D03*
%TO.N,raw*%
X153601736Y-25799424D03*
%TD*%
D27*
%TO.N,GND*%
X146651737Y-44249424D02*
X141901739Y-39499426D01*
X92502737Y-35974424D02*
X92492737Y-35974424D01*
X92492737Y-35974424D02*
X91227737Y-34709424D01*
X91227737Y-37249424D02*
X92502737Y-35974424D01*
X123901737Y-37119424D02*
X123901737Y-39474425D01*
X97417642Y-53156859D02*
X100760207Y-56499424D01*
X100942642Y-39499424D02*
X105901737Y-39499424D01*
D28*
X77501736Y-28409425D02*
X77501736Y-30924424D01*
X80330737Y-30924424D02*
X81575737Y-32169424D01*
D27*
X141901737Y-39499424D02*
X141901739Y-39499426D01*
X123901737Y-39474425D02*
X123926736Y-39499424D01*
X100760207Y-56499424D02*
X105901736Y-56499424D01*
D28*
X77501736Y-30924424D02*
X80330737Y-30924424D01*
D27*
X141901739Y-56499423D02*
X123901736Y-56499424D01*
X123901739Y-56499421D02*
X123901736Y-56499424D01*
X92502737Y-35974424D02*
X97417642Y-35974424D01*
X99301738Y-63099424D02*
X95601736Y-63099424D01*
X123901739Y-54119424D02*
X123901739Y-56499421D01*
D29*
X94001735Y-64599425D02*
X94001736Y-63895424D01*
D27*
X105901738Y-56499424D02*
X99301738Y-63099424D01*
X123926736Y-39499424D02*
X141901737Y-39499424D01*
D29*
X93685038Y-37586123D02*
X94021738Y-37249423D01*
D27*
X95601736Y-63099424D02*
X94001736Y-63099424D01*
X105901737Y-39499424D02*
X123926736Y-39499424D01*
D28*
X78781737Y-27129424D02*
X77501736Y-28409425D01*
D27*
X97417642Y-35974424D02*
X100942642Y-39499424D01*
X123901736Y-56499424D02*
X105901738Y-56499424D01*
X159901737Y-44249424D02*
X146651737Y-44249424D01*
X97417642Y-35974424D02*
X97417642Y-53156859D01*
X146651737Y-61249424D02*
X141901739Y-56499423D01*
X159901739Y-61249425D02*
X146651737Y-61249424D01*
D29*
X94001736Y-63895424D02*
X94001736Y-63099424D01*
D27*
%TO.N,R1C1*%
X110901739Y-37399424D02*
X100901739Y-37399423D01*
D29*
X93818438Y-39992724D02*
X94021736Y-39789425D01*
D27*
%TO.N,R1C2*%
X128901739Y-35019425D02*
X118901739Y-35019424D01*
D29*
X93685040Y-42666123D02*
X94021737Y-42329424D01*
%TO.N,R1C3*%
X93685039Y-45206123D02*
X94021739Y-44869424D01*
D27*
X146901739Y-37399423D02*
X136901737Y-37399425D01*
D29*
%TO.N,R1C4*%
X93685040Y-47746124D02*
X94021737Y-47409423D01*
D27*
X164901738Y-42149424D02*
X154901738Y-42149423D01*
D29*
%TO.N,R2C1*%
X93685040Y-50286122D02*
X94021737Y-49949424D01*
D27*
X110901736Y-54399424D02*
X100901736Y-54399424D01*
D29*
%TO.N,R2C2*%
X93818438Y-52692724D02*
X94021737Y-52489425D01*
D27*
X118901739Y-52019424D02*
X128901739Y-52019424D01*
D29*
%TO.N,R2C3*%
X93818436Y-55232726D02*
X94021738Y-55029423D01*
D27*
X136901737Y-54399425D02*
X146901738Y-54399423D01*
D29*
%TO.N,R2C4*%
X94021739Y-57569424D02*
X93818438Y-57772725D01*
D27*
X154901737Y-59149424D02*
X164901738Y-59149425D01*
X168176737Y-51599424D02*
X168176739Y-55874424D01*
D29*
%TO.N,RST*%
X94001735Y-59974423D02*
X94001735Y-61199425D01*
X94001735Y-61099423D02*
X94001736Y-61099424D01*
X93685040Y-35046124D02*
X94021737Y-34709424D01*
D27*
%TO.N,BT+*%
X154251736Y-23874427D02*
X153576739Y-24549424D01*
X154251736Y-22586923D02*
X154251736Y-23874427D01*
%TO.N,raw*%
X153151736Y-25799424D02*
X151251736Y-23899424D01*
X153601736Y-25799424D02*
X153151736Y-25799424D01*
X151251736Y-23899424D02*
X151251736Y-22586924D01*
%TD*%
M02*
